# xmcd
#
# Track frame offsets:
#   150
#   17132
#   33237
#   51456
#   64980
#   82499
#   98652
#   110553
#   131440
#
# Disc length: 1975 seconds
#
# Revision: 0
# Processed by: cddbd v1.5.1PL0 Copyright (c) Steve Scherf et al.
# Submitted via: uFREEDB ActiveX Control 1.5
#
DISCID=7d07b509
DTITLE=boss ac - ritmo amor palavras
DYEAR=1900
DGENRE=Hip Hop
TTITLE0=Hip Hop (Sou eu e es tu)
TTITLE1=Farto de ...
TTITLE2=Yo (não brinques com esta merda)
TTITLE3=Só preciso de 5 Minutos
TTITLE4=Faz o favor de entrar
TTITLE5=Que Deus
TTITLE6=Carta para o Pai-Natal
TTITLE7=Só vês o que queres ver
TTITLE8=Quem sente, sente
EXTD=
EXTT0=
EXTT1=
EXTT2=
EXTT3=
EXTT4=
EXTT5=
EXTT6=
EXTT7=
EXTT8=
PLAYORDER=
